<svg width="16" height="17" viewBox="0 0 16 17" fill="none" xmlns="http://www.w3.org/2000/svg">
<g clipPath="url(#clip0_3_3990)">
<path d="M7.25 4.5C7.25 4.08437 7.58437 3.75 8 3.75C8.41562 3.75 8.75 4.08437 8.75 4.5V8.35L11.4156 10.125C11.7594 10.3562 11.8531 10.8219 11.5969 11.1656C11.3938 11.5094 10.9281 11.6031 10.5844 11.3469L7.58437 9.34688C7.375 9.23438 7.25 9 7.25 8.72188V4.5ZM8 0.75C12.4187 0.75 16 4.33125 16 8.75C16 13.1687 12.4187 16.75 8 16.75C3.58125 16.75 0 13.1687 0 8.75C0 4.33125 3.58125 0.75 8 0.75ZM1.5 8.75C1.5 12.3406 4.40938 15.25 8 15.25C11.5906 15.25 14.5 12.3406 14.5 8.75C14.5 5.15938 11.5906 2.25 8 2.25C4.40938 2.25 1.5 5.15938 1.5 8.75Z" fill="#737373"/>
</g>
<defs>
<clipPath id="clip0_3_3990">
<rect width="16" height="16" fill="white" transform="translate(0 0.75)"/>
</clipPath>
</defs>
</svg>
