<svg width="166" height="117" viewBox="0 0 166 117" fill="none" xmlns="http://www.w3.org/2000/svg">
<g clip-path="url(#clip0_56_116)">
<path d="M44.208 64.981H20.048V67.711H44.208V64.981Z" fill="#60A5FA"/>
<path d="M44.208 69.864H20.048V72.594H44.208V69.864Z" fill="#60A5FA"/>
<path d="M44.208 81.0149H20.048V83.7449H44.208V81.0149Z" fill="#60A5FA"/>
<path d="M44.208 85.896H20.048V88.627H44.208V85.896Z" fill="#60A5FA"/>
<path d="M148.873 62.751H124.712V65.481H148.873V62.751Z" fill="#2962FF"/>
<path d="M148.873 67.634H124.712V70.364H148.873V67.634Z" fill="#2962FF"/>
<path d="M148.873 78.7849H124.712V81.5149H148.873V78.7849Z" fill="#2962FF"/>
<path d="M148.873 83.666H124.712V86.397H148.873V83.666Z" fill="#2962FF"/>
<path d="M154.214 116.642H11.498C8.44903 116.639 5.52579 115.426 3.36981 113.27C1.21383 111.114 0.00122349 108.191 -0.00195312 105.142V11.4971C0.00122349 8.44806 1.21383 5.52483 3.36981 3.36885C5.52579 1.21287 8.44903 0.000246924 11.498 -0.00292969H154.214C157.263 -1.73375e-05 160.186 1.21252 162.343 3.36856C164.499 5.5246 165.711 8.44797 165.714 11.4971V105.145C165.71 108.194 164.497 111.116 162.341 113.272C160.186 115.427 157.263 116.639 154.214 116.642ZM11.498 6.27208C10.1124 6.27314 8.78383 6.82391 7.80386 7.8035C6.8239 8.78309 6.27262 10.1115 6.27103 11.4971V105.145C6.27262 106.531 6.8239 107.859 7.80386 108.839C8.78383 109.818 10.1124 110.369 11.498 110.37H154.214C155.599 110.368 156.927 109.818 157.907 108.838C158.886 107.858 159.437 106.53 159.439 105.145V11.4971C159.437 10.1118 158.886 8.78373 157.907 7.8042C156.927 6.82467 155.599 6.27367 154.214 6.27208H11.498Z" fill="#FB923C"/>
<path d="M22.5439 23.7971H67.2509C68.6952 23.7976 70.0802 24.3718 71.1013 25.3932C72.1223 26.4147 72.6959 27.7998 72.6959 29.2441V35.7591C72.6959 37.2038 72.1221 38.5892 71.1006 39.6107C70.079 40.6322 68.6936 41.2061 67.2489 41.2061H22.5439C21.099 41.2061 19.7133 40.6321 18.6916 39.6104C17.6699 38.5887 17.0959 37.203 17.0959 35.7581V29.2451C17.0959 27.8002 17.6699 26.4145 18.6916 25.3928C19.7133 24.3711 21.099 23.7971 22.5439 23.7971Z" fill="#262626"/>
<path d="M69.27 32.501C69.27 33.7542 68.8984 34.9792 68.2022 36.0211C67.506 37.0631 66.5165 37.8752 65.3587 38.3547C64.201 38.8343 62.927 38.9598 61.6979 38.7153C60.4689 38.4708 59.3399 37.8674 58.4538 36.9813C57.5677 36.0952 56.9642 34.9662 56.7198 33.7372C56.4753 32.5081 56.6008 31.2341 57.0803 30.0764C57.5599 28.9186 58.372 27.9291 59.4139 27.2328C60.4559 26.5366 61.6809 26.165 62.934 26.165C64.6144 26.165 66.226 26.8326 67.4143 28.0208C68.6025 29.209 69.27 30.8206 69.27 32.501Z" fill="white"/>
<path d="M80.667 73.0611C80.2087 72.8516 79.7731 72.5955 79.3671 72.297C79.2171 72.19 79.2591 72.0411 79.4611 71.9621C79.564 71.9238 79.674 71.9083 79.7834 71.9167C79.8929 71.9252 79.9993 71.9574 80.0951 72.011L80.688 72.433L82.154 71.478C82.2511 71.4267 82.3581 71.397 82.4677 71.3909C82.5773 71.3849 82.687 71.4027 82.7891 71.443C82.9841 71.526 83.0151 71.676 82.8581 71.778L81.025 72.972C80.9164 73.0347 80.7924 73.0655 80.667 73.0611ZM77.049 70.4881C76.685 70.3881 74.0101 68.4881 74.0101 68.4881C73.8611 68.3881 73.9031 68.233 74.1041 68.155C74.2071 68.117 74.3172 68.1018 74.4267 68.1106C74.5362 68.1194 74.6424 68.152 74.7381 68.206L77.4151 70.106C77.5641 70.212 77.5151 70.3621 77.3151 70.4411C77.2298 70.4721 77.1398 70.488 77.049 70.4881ZM85.329 70.024C84.85 69.889 84.819 69.738 84.976 69.636L87.803 67.7941C87.9003 67.7423 88.0077 67.7123 88.1177 67.7063C88.2277 67.7002 88.3377 67.7182 88.4401 67.7591C88.6351 67.8421 88.666 67.991 88.509 68.094L85.68 69.9361C85.5746 69.9968 85.4547 70.0275 85.3331 70.025L85.329 70.024ZM71.697 66.679C71.333 66.579 68.658 64.679 68.658 64.679C68.508 64.573 68.551 64.4241 68.752 64.3461C68.8549 64.3074 68.965 64.2918 69.0745 64.3003C69.184 64.3087 69.2904 64.3411 69.386 64.395L72.0611 66.2951C72.2101 66.3951 72.1681 66.55 71.9671 66.628C71.8805 66.6613 71.7887 66.6789 71.696 66.68L71.697 66.679ZM90.985 66.34C90.506 66.203 90.4741 66.054 90.6321 65.952L93.4611 64.11C93.558 64.0584 93.665 64.0285 93.7747 64.0224C93.8844 64.0164 93.994 64.0344 94.0961 64.0751C94.2961 64.1561 94.322 64.3071 94.165 64.4101L91.3381 66.252C91.2308 66.3136 91.1086 66.3444 90.985 66.3411V66.34ZM66.344 62.873C65.98 62.773 63.3031 60.873 63.3031 60.873C63.1541 60.767 63.196 60.6181 63.403 60.5401C63.5059 60.5013 63.6162 60.4858 63.7258 60.4946C63.8354 60.5034 63.9417 60.5364 64.037 60.5911L66.714 62.491C66.863 62.597 66.82 62.7461 66.614 62.8241C66.5279 62.8573 66.4364 62.8742 66.344 62.874V62.873ZM96.644 62.655C96.165 62.52 96.134 62.37 96.292 62.267L99.1191 60.425C99.2168 60.3735 99.3245 60.3438 99.4347 60.3377C99.545 60.3317 99.6553 60.3495 99.758 60.39C99.951 60.473 99.982 60.6231 99.826 60.7251L96.9971 62.569C96.8882 62.6301 96.7648 62.6602 96.6401 62.6561L96.644 62.655ZM60.994 59.0651C60.632 58.9651 57.955 57.0651 57.955 57.0651C57.806 56.9581 57.848 56.8091 58.055 56.7301C58.1577 56.6918 58.2675 56.6764 58.3767 56.6853C58.4859 56.6941 58.5919 56.7268 58.687 56.7811L61.364 58.681C61.513 58.787 61.4711 58.936 61.2641 59.016C61.1764 59.0486 61.0836 59.0653 60.99 59.0651H60.994ZM102.3 58.9711C101.821 58.8341 101.79 58.6861 101.947 58.5831L104.776 56.741C104.873 56.6893 104.981 56.6593 105.091 56.6533C105.201 56.6472 105.311 56.6652 105.413 56.706C105.606 56.789 105.639 56.938 105.481 57.041L102.654 58.883C102.545 58.9454 102.421 58.9762 102.296 58.972L102.3 58.9711ZM107.955 55.287C107.476 55.15 107.447 55.001 107.604 54.899L110.431 53.0571C110.529 53.0052 110.636 52.9753 110.747 52.9692C110.857 52.9632 110.967 52.9812 111.07 53.0221C111.263 53.1051 111.294 53.254 111.138 53.357L108.309 55.1991C108.201 55.2618 108.076 55.2927 107.951 55.288L107.955 55.287ZM55.644 55.2561C55.279 55.1561 52.6031 53.2561 52.6031 53.2561C52.4541 53.1501 52.4971 53.001 52.7031 52.921C52.8061 52.883 52.9162 52.8679 53.0257 52.8767C53.1351 52.8855 53.2414 52.918 53.3371 52.972L56.012 54.8721C56.161 54.9781 56.119 55.127 55.912 55.205C55.8249 55.2388 55.7325 55.2564 55.6391 55.257L55.644 55.2561ZM113.613 51.603C113.134 51.466 113.102 51.316 113.26 51.215L116.089 49.373C116.186 49.321 116.293 49.2908 116.402 49.2844C116.512 49.278 116.622 49.2956 116.724 49.336C116.919 49.419 116.95 49.569 116.793 49.672L113.964 51.5141C113.856 51.5759 113.733 51.607 113.609 51.6041L113.613 51.603ZM50.291 51.4501C49.927 51.3501 47.2501 49.4501 47.2501 49.4501C47.1011 49.3441 47.1431 49.1951 47.3501 49.1171C47.453 49.0788 47.563 49.0634 47.6724 49.0719C47.7819 49.0803 47.8882 49.1124 47.9841 49.166L50.659 51.0661C50.808 51.1721 50.766 51.321 50.559 51.399C50.4724 51.433 50.3801 51.4503 50.287 51.4501H50.291ZM119.268 47.918C118.789 47.783 118.758 47.633 118.915 47.53L121.744 45.688C121.841 45.6362 121.949 45.6062 122.059 45.6002C122.169 45.5941 122.279 45.6122 122.381 45.653C122.581 45.736 122.607 45.8861 122.45 45.9881L119.621 47.83C119.512 47.8923 119.388 47.9228 119.263 47.918H119.268ZM44.937 47.642C44.573 47.542 41.8981 45.642 41.8981 45.642C41.7481 45.542 41.7911 45.387 41.9921 45.309C42.095 45.2706 42.2052 45.2553 42.3147 45.2641C42.4243 45.2729 42.5306 45.3057 42.6261 45.36L45.3031 47.2601C45.4521 47.3661 45.4101 47.516 45.2031 47.593C45.1169 47.6261 45.0253 47.6427 44.933 47.642H44.937ZM124.924 44.2341C124.445 44.0971 124.413 43.9491 124.571 43.8461L127.4 42.004C127.497 41.9523 127.605 41.9223 127.715 41.9163C127.825 41.9102 127.935 41.9282 128.037 41.969C128.23 42.052 128.263 42.201 128.105 42.304L125.276 44.146C125.168 44.208 125.045 44.2385 124.92 44.2341H124.924ZM39.5861 43.834C39.2211 43.734 36.5441 41.834 36.5441 41.834C36.3951 41.728 36.438 41.5781 36.644 41.5011C36.7468 41.462 36.8569 41.4461 36.9665 41.4546C37.0761 41.4631 37.1825 41.4957 37.278 41.55L39.9531 43.4501C40.1031 43.5571 40.0601 43.7061 39.8591 43.7851C39.7705 43.8182 39.6766 43.8348 39.5821 43.834H39.5861ZM130.58 40.551C130.101 40.414 130.07 40.266 130.227 40.163L133.056 38.321C133.153 38.2694 133.26 38.2393 133.369 38.2329C133.479 38.2265 133.589 38.244 133.691 38.284C133.891 38.367 133.917 38.517 133.76 38.62L130.933 40.4621C130.825 40.5243 130.701 40.5551 130.576 40.551H130.58ZM34.232 40.0261C33.868 39.9261 31.193 38.0261 31.193 38.0261C31.044 37.9201 31.0861 37.771 31.2931 37.693C31.3956 37.6544 31.5055 37.6389 31.6148 37.6478C31.724 37.6566 31.83 37.6894 31.925 37.744L34.602 39.6441C34.751 39.7501 34.709 39.899 34.502 39.977C34.416 40.0091 34.3249 40.0257 34.2331 40.0261H34.232ZM136.232 36.866C135.753 36.731 135.724 36.581 135.882 36.478L138.708 34.6381C138.805 34.5859 138.912 34.5556 139.022 34.5492C139.132 34.5429 139.243 34.5606 139.345 34.6011C139.54 34.6841 139.571 34.8341 139.414 34.9361L136.585 36.779C136.478 36.8391 136.356 36.8688 136.233 36.865L136.232 36.866ZM28.878 36.2201C28.513 36.1201 25.8361 34.2201 25.8361 34.2201C25.6871 34.1131 25.7301 33.9641 25.9361 33.8851C26.039 33.8467 26.149 33.8312 26.2584 33.8396C26.3679 33.8481 26.4743 33.8803 26.5701 33.934L29.2471 35.834C29.3961 35.94 29.3531 36.089 29.1471 36.167C29.0611 36.2011 28.9695 36.2188 28.877 36.219L28.878 36.2201Z" fill="#1E3A8A"/>
<path d="M33.5971 32.3149C33.5971 33.786 33.1608 35.2241 32.3435 36.4473C31.5263 37.6705 30.3646 38.6238 29.0055 39.1868C27.6464 39.7497 26.1508 39.897 24.708 39.61C23.2652 39.323 21.9398 38.6146 20.8996 37.5744C19.8594 36.5342 19.151 35.2089 18.864 33.766C18.577 32.3232 18.7243 30.8277 19.2872 29.4686C19.8502 28.1095 20.8036 26.9478 22.0267 26.1305C23.2499 25.3132 24.688 24.877 26.1591 24.877C27.1359 24.8768 28.1031 25.0691 29.0056 25.4429C29.9081 25.8166 30.7281 26.3645 31.4188 27.0552C32.1095 27.7459 32.6574 28.5659 33.0311 29.4684C33.4049 30.3709 33.5972 31.3381 33.5971 32.3149Z" fill="#22C55E"/>
<path d="M145.083 32.3149C145.083 33.786 144.647 35.2241 143.83 36.4473C143.012 37.6705 141.851 38.6238 140.491 39.1868C139.132 39.7497 137.637 39.897 136.194 39.61C134.751 39.323 133.426 38.6146 132.386 37.5744C131.345 36.5342 130.637 35.2089 130.35 33.766C130.063 32.3232 130.21 30.8277 130.773 29.4686C131.336 28.1095 132.29 26.9478 133.513 26.1305C134.736 25.3132 136.174 24.877 137.645 24.877C138.622 24.8768 139.589 25.0691 140.492 25.4429C141.394 25.8166 142.214 26.3645 142.905 27.0552C143.595 27.7459 144.143 28.5659 144.517 29.4684C144.891 30.3709 145.083 31.3381 145.083 32.3149Z" fill="#1D4ED8"/>
<path d="M82.1176 78.0286C86.7236 78.0286 90.4575 74.2947 90.4575 69.6888C90.4575 65.0828 86.7236 61.3489 82.1176 61.3489C77.5116 61.3489 73.7777 65.0828 73.7777 69.6888C73.7777 74.2947 77.5116 78.0286 82.1176 78.0286Z" fill="#EA580C"/>
</g>
<defs>
<clipPath id="clip0_56_116">
<rect width="165.711" height="116.642" fill="white"/>
</clipPath>
</defs>
</svg>
