<svg width="128" height="128" viewBox="0 0 128 128" fill="none" xmlns="http://www.w3.org/2000/svg">
<g clip-path="url(#clip0_57_257)">
<path d="M13.6136 68.7015C13.6136 68.7015 16.1111 34.2279 45.8331 21.6116C75.555 8.99543 102.088 31.1462 102.088 31.1462L100.353 31.8826C100.353 31.8826 76.9746 10.4179 46.5614 23.3275C16.1483 36.2372 15.3484 67.9651 15.3484 67.9651L13.6136 68.7015Z" fill="#1D4ED8"/>
<path d="M68.7365 114.155L67.4718 101.529L88.2894 92.6927L92.3913 97.5329L96.4933 102.373L68.7365 114.155Z" fill="#1D4ED8"/>
<path d="M43.2244 73.3455L66.0151 98.0975L86.8327 89.2609L84.8595 55.6725L48.3823 27.6173L43.2244 73.3455Z" fill="#EA580C"/>
<path d="M49.2961 70.7682L66.866 91.6611L81.6117 85.4019L78.7877 58.2498L52.3883 37.0548L49.2961 70.7682Z" fill="white"/>
<path d="M66.227 69.6567C68.1432 68.8433 69.0444 66.6475 68.2399 64.7521C67.4353 62.8568 65.2298 61.9797 63.3136 62.7931C61.3974 63.6065 60.4962 65.8023 61.3007 67.6977C62.1052 69.593 64.3108 70.4701 66.227 69.6567Z" fill="#1D4ED8"/>
<path d="M48.2433 29.7014L48.3823 27.6173L49.9781 28.965L64.5451 63.2828L62.8103 64.0192L48.2433 29.7014Z" fill="#1D4ED8"/>
<path d="M16.2158 67.597C15.8135 66.6494 14.7107 66.2108 13.7526 66.6175C12.7945 67.0242 12.3439 68.1221 12.7462 69.0698C13.1484 70.0174 14.2512 70.456 15.2093 70.0493C16.1674 69.6426 16.618 68.5447 16.2158 67.597Z" fill="#EA580C"/>
<path d="M102.956 30.778C102.553 29.8304 101.451 29.3918 100.492 29.7985C99.5344 30.2052 99.0838 31.3031 99.486 32.2508C99.8883 33.1985 100.991 33.637 101.949 33.2303C102.907 32.8236 103.358 31.7257 102.956 30.778Z" fill="#EA580C"/>
<path d="M48.7995 21.3651C48.1961 19.9436 46.5419 19.2858 45.1047 19.8958C43.6676 20.5058 42.9917 22.1527 43.5951 23.5742C44.1984 24.9957 45.8526 25.6535 47.2898 25.0435C48.7269 24.4334 49.4028 22.7866 48.7995 21.3651Z" fill="#EA580C"/>
</g>
<defs>
<clipPath id="clip0_57_257">
<rect width="98" height="96" fill="white" transform="translate(0 39.0416) rotate(-23)"/>
</clipPath>
</defs>
</svg>
