<svg width="200" height="197" viewBox="0 0 200 197" fill="none" xmlns="http://www.w3.org/2000/svg">
<g clip-path="url(#clip0_57_267)">
<path d="M98.3871 175.365C141.145 175.365 175.806 140.839 175.806 98.25C175.806 55.6607 141.145 21.1353 98.3871 21.1353C55.6296 21.1353 20.9677 55.6607 20.9677 98.25C20.9677 140.839 55.6296 175.365 98.3871 175.365Z" stroke="#EA580C" strokWidth="3"/>
<path d="M100 1.85656C100 0.96928 99.2779 0.25 98.3871 0.25C97.4963 0.25 96.7742 0.96928 96.7742 1.85656V194.643C96.7742 195.531 97.4963 196.25 98.3871 196.25C99.2779 196.25 100 195.531 100 194.643V1.85656Z" fill="#1D4ED8"/>
<path d="M195.161 96.6434H1.6129C0.722121 96.6434 0 97.3627 0 98.25C0 99.1373 0.722121 99.8565 1.6129 99.8565H195.161C196.052 99.8565 196.774 99.1373 196.774 98.25C196.774 97.3627 196.052 96.6434 195.161 96.6434Z" fill="#1D4ED8"/>
</g>
<defs>
<clipPath id="clip0_57_267">
<rect width="200" height="196" fill="white" transform="translate(0 0.25)"/>
</clipPath>
</defs>
</svg>
